<svg width="356" height="110" viewBox="0 0 356 110" fill="none" xmlns="http://www.w3.org/2000/svg">
<path d="M60.5 17.687C49.9686 8.212 36.3142 2.98047 22.1667 3.00006C15.4456 3.00006 8.99278 4.15349 3 6.28092V97.5939C9.15646 95.4153 15.6383 94.3058 22.1667 94.313C36.8931 94.313 50.3289 99.8687 60.5 109M60.5 17.687C71.031 8.21147 84.6857 2.97986 98.8333 3.00006C105.554 3.00006 112.007 4.15349 118 6.28092V97.5939C111.844 95.4153 105.362 94.3058 98.8333 94.313C84.6858 94.2934 71.0314 99.525 60.5 109M60.5 17.687V109" stroke="white" stroke-width="6" stroke-linecap="round" stroke-linejoin="round"/>
<path d="M176.312 48L171.844 35.3125H154.375L149.906 48H142L159 2.125H167.312L184.281 48H176.312ZM169.906 28.875L165.562 16.375C165.396 15.8333 165.156 15.0729 164.844 14.0938C164.531 13.0938 164.219 12.0833 163.906 11.0625C163.594 10.0208 163.333 9.14583 163.125 8.4375C162.917 9.29167 162.656 10.25 162.344 11.3125C162.052 12.3542 161.76 13.3333 161.469 14.25C161.198 15.1667 160.99 15.875 160.844 16.375L156.469 28.875H169.906ZM228.438 48H219.219L196.844 11.5312H196.562C196.646 12.7604 196.719 14.0625 196.781 15.4375C196.865 16.8125 196.927 18.2292 196.969 19.6875C197.031 21.1458 197.083 22.625 197.125 24.125V48H190.312V2.3125H199.469L221.812 38.5312H222.031C221.99 37.4688 221.938 36.25 221.875 34.875C221.812 33.5 221.75 32.0833 221.688 30.625C221.646 29.1458 221.615 27.7188 221.594 26.3438V2.3125H228.438V48ZM240.438 48V2.3125H247.938V48H240.438ZM279.719 48L266.562 9.84375H266.281C266.344 10.6979 266.417 11.8646 266.5 13.3438C266.583 14.8229 266.656 16.4062 266.719 18.0938C266.781 19.7812 266.812 21.3958 266.812 22.9375V48H260V2.3125H270.531L283.188 38.7812H283.375L296.469 2.3125H306.969V48H299.812V22.5625C299.812 21.1667 299.833 19.6562 299.875 18.0312C299.938 16.4062 300 14.8646 300.062 13.4062C300.146 11.9479 300.208 10.7812 300.25 9.90625H300L286.344 48H279.719ZM347.312 48L342.844 35.3125H325.375L320.906 48H313L330 2.125H338.312L355.281 48H347.312ZM340.906 28.875L336.562 16.375C336.396 15.8333 336.156 15.0729 335.844 14.0938C335.531 13.0938 335.219 12.0833 334.906 11.0625C334.594 10.0208 334.333 9.14583 334.125 8.4375C333.917 9.29167 333.656 10.25 333.344 11.3125C333.052 12.3542 332.76 13.3333 332.469 14.25C332.198 15.1667 331.99 15.875 331.844 16.375L327.469 28.875H340.906Z" fill="white"/>
<path d="M146.938 63.3125H162.875C169.479 63.3125 174.188 64.2917 177 66.25C179.812 68.2083 181.219 71.0208 181.219 74.6875C181.219 76.6875 180.854 78.3854 180.125 79.7812C179.417 81.1771 178.51 82.2812 177.406 83.0938C176.323 83.9062 175.208 84.4583 174.062 84.75V85.0625C175.312 85.375 176.552 85.8958 177.781 86.625C179.031 87.3333 180.062 88.4062 180.875 89.8438C181.708 91.2604 182.125 93.1875 182.125 95.625C182.125 98.3958 181.417 100.781 180 102.781C178.604 104.781 176.604 106.323 174 107.406C171.396 108.469 168.302 109 164.719 109H146.938V63.3125ZM159.281 80.8438H163C165.042 80.8438 166.479 80.4271 167.312 79.5938C168.146 78.7396 168.562 77.7083 168.562 76.5C168.562 75.25 168.083 74.3021 167.125 73.6562C166.188 72.9896 164.729 72.6562 162.75 72.6562H159.281V80.8438ZM159.281 89.875V99.4688H163.625C165.771 99.4688 167.271 99.0104 168.125 98.0938C168.979 97.1562 169.406 95.9896 169.406 94.5938C169.406 93.7812 169.219 93.0208 168.844 92.3125C168.49 91.5833 167.875 91 167 90.5625C166.125 90.1042 164.917 89.875 163.375 89.875H159.281ZM240.812 86.0938C240.812 89.6146 240.385 92.8229 239.531 95.7188C238.698 98.5938 237.385 101.073 235.594 103.156C233.802 105.24 231.5 106.844 228.688 107.969C225.875 109.073 222.51 109.625 218.594 109.625C214.76 109.625 211.438 109.073 208.625 107.969C205.833 106.844 203.531 105.25 201.719 103.188C199.906 101.104 198.562 98.6146 197.688 95.7188C196.812 92.8229 196.375 89.5938 196.375 86.0312C196.375 81.2812 197.156 77.1562 198.719 73.6562C200.302 70.1354 202.74 67.4167 206.031 65.5C209.323 63.5625 213.531 62.5938 218.656 62.5938C223.865 62.5938 228.094 63.5625 231.344 65.5C234.615 67.4375 237.01 70.1667 238.531 73.6875C240.052 77.2083 240.812 81.3438 240.812 86.0938ZM209.375 86.0938C209.375 88.8438 209.688 91.2083 210.312 93.1875C210.938 95.1667 211.927 96.6875 213.281 97.75C214.635 98.8125 216.406 99.3438 218.594 99.3438C220.865 99.3438 222.667 98.8125 224 97.75C225.354 96.6875 226.323 95.1667 226.906 93.1875C227.51 91.2083 227.812 88.8438 227.812 86.0938C227.812 81.9688 227.125 78.7083 225.75 76.3125C224.375 73.9167 222.01 72.7188 218.656 72.7188C216.427 72.7188 214.625 73.2604 213.25 74.3438C211.896 75.4271 210.906 76.9688 210.281 78.9688C209.677 80.9688 209.375 83.3438 209.375 86.0938ZM299.812 86.0938C299.812 89.6146 299.385 92.8229 298.531 95.7188C297.698 98.5938 296.385 101.073 294.594 103.156C292.802 105.24 290.5 106.844 287.688 107.969C284.875 109.073 281.51 109.625 277.594 109.625C273.76 109.625 270.438 109.073 267.625 107.969C264.833 106.844 262.531 105.25 260.719 103.188C258.906 101.104 257.562 98.6146 256.688 95.7188C255.812 92.8229 255.375 89.5938 255.375 86.0312C255.375 81.2812 256.156 77.1562 257.719 73.6562C259.302 70.1354 261.74 67.4167 265.031 65.5C268.323 63.5625 272.531 62.5938 277.656 62.5938C282.865 62.5938 287.094 63.5625 290.344 65.5C293.615 67.4375 296.01 70.1667 297.531 73.6875C299.052 77.2083 299.812 81.3438 299.812 86.0938ZM268.375 86.0938C268.375 88.8438 268.688 91.2083 269.312 93.1875C269.938 95.1667 270.927 96.6875 272.281 97.75C273.635 98.8125 275.406 99.3438 277.594 99.3438C279.865 99.3438 281.667 98.8125 283 97.75C284.354 96.6875 285.323 95.1667 285.906 93.1875C286.51 91.2083 286.812 88.8438 286.812 86.0938C286.812 81.9688 286.125 78.7083 284.75 76.3125C283.375 73.9167 281.01 72.7188 277.656 72.7188C275.427 72.7188 273.625 73.2604 272.25 74.3438C270.896 75.4271 269.906 76.9688 269.281 78.9688C268.677 80.9688 268.375 83.3438 268.375 86.0938ZM355.094 109H341.156L332.125 91.5312L328.469 93.7188V109H316.062V63.3125H328.469V83.1562C328.99 82.1562 329.583 81.1562 330.25 80.1562C330.938 79.1562 331.604 78.2083 332.25 77.3125L341.844 63.3125H355.344L340.938 83.7812L355.094 109Z" fill="white"/>
</svg>
